<svg width="35" height="35" viewBox="0 0 35 35" fill="none" xmlns="http://www.w3.org/2000/svg">
<path d="M17.1251 4.9H17.125C9.82103 4.9 3.9 10.821 3.9 18.125C3.9 25.429 9.82103 31.35 17.125 31.35C24.429 31.35 30.35 25.429 30.35 18.125V18.1249C30.3415 10.8245 24.4255 4.90852 17.1251 4.9ZM17.1249 30.0563C10.5355 30.0562 5.19373 24.7144 5.19373 18.125C5.19373 11.5355 10.5355 6.19373 17.125 6.19373C23.7144 6.19373 29.0562 11.5355 29.0563 18.1249C29.0488 24.7113 23.7113 30.0488 17.1249 30.0563Z" fill="white" stroke="white" stroke-width="0.2"/>
<path d="M18.7336 11.7071L19.6417 15.3407H14.6083L15.5165 11.7071L15.5286 11.6585L15.4801 11.6464L14.4192 11.3817L14.3707 11.3696L14.3585 11.4181L13.3776 15.3407H10.5625H10.5125V15.3907V16.4844V16.5344H10.5625H11.691L12.7072 23.1377C12.7519 23.4287 13.0023 23.6437 13.2969 23.6438H13.2969H20.9531H20.9532C21.2477 23.6437 21.4981 23.4287 21.5429 23.1376L22.559 16.5344H23.6875H23.7375V16.4844V15.3907V15.3407H23.6875H20.8724L19.8915 11.4181L19.8794 11.3696L19.8309 11.3817L18.77 11.6464L18.7214 11.6585L18.7336 11.7071ZM21.3509 16.5344L20.441 22.45H13.809L12.899 16.5344H21.3509Z" fill="white" stroke="white" stroke-width="0.1"/>
<path d="M14.3906 17.5283H14.3406V17.5783V21.4065V21.4565H14.3906H15.4844H15.5344V21.4065V17.5783V17.5283H15.4844H14.3906Z" fill="white" stroke="white" stroke-width="0.1"/>
<path d="M16.5781 17.5283H16.5281V17.5783V21.4065V21.4565H16.5781H17.6719H17.7219V21.4065V17.5783V17.5283H17.6719H16.5781Z" fill="white" stroke="white" stroke-width="0.1"/>
<path d="M18.7656 17.5283H18.7156V17.5783V21.4065V21.4565H18.7656H19.8594H19.9094V21.4065V17.5783V17.5283H19.8594H18.7656Z" fill="white" stroke="white" stroke-width="0.1"/>
</svg>
