<svg width="32" height="32" viewBox="0 0 32 32" fill="none" xmlns="http://www.w3.org/2000/svg">
<path d="M15.9999 30.4124C23.9379 30.4124 30.4123 23.9628 30.4123 16C30.4123 8.0372 23.9379 1.58759 15.9999 1.58759C8.06194 1.58759 1.58752 8.062 1.58752 16C1.58752 23.938 8.06194 30.4124 15.9999 30.4124ZM15.9999 3.62169C22.8216 3.62169 28.3782 9.17828 28.3782 16C28.3782 22.8217 22.8216 28.3783 15.9999 28.3783C9.17822 28.3783 3.62163 22.8217 3.62163 16C3.62163 9.17828 9.17822 3.62169 15.9999 3.62169Z" fill="#21D105"/>
<path d="M12.6759 23.1938C12.8744 23.3923 13.1224 23.4915 13.3953 23.4915C13.6433 23.4915 13.9162 23.3923 14.1147 23.1938L20.6635 16.645C20.8619 16.4465 20.9612 16.1984 20.9612 15.9256C20.9612 15.6527 20.8619 15.4046 20.6635 15.2062L14.1147 8.65735C13.7178 8.26046 13.0728 8.26046 12.6759 8.65735C12.279 9.05425 12.279 9.69922 12.6759 10.0961L18.5054 15.9256L12.6759 21.755C12.279 22.1519 12.279 22.7969 12.6759 23.1938Z" fill="#21D105"/>
</svg>
