<svg width="46" height="46" viewBox="0 0 46 46" fill="none" xmlns="http://www.w3.org/2000/svg">
<g clip-path="url(#clip0_106_30)">
<path d="M2.875 3.12998C-0.73983 6.88473 2.98023e-06 10.8733 2.98023e-06 22.9905C2.98023e-06 33.053 -1.75566 43.1404 7.43284 45.5151C10.3021 46.2531 35.7248 46.2531 38.5902 45.5113C42.4158 44.5242 45.5285 41.4211 45.954 36.0104C46.0134 35.2552 46.0134 10.7392 45.9521 9.96865C45.4997 4.20524 41.952 0.883652 37.2772 0.210902C36.2058 0.0556519 35.9912 0.00965191 30.4942 6.85751e-05C10.9959 0.00965191 6.72175 -0.858598 2.875 3.12998Z" fill="url(#paint0_linear_106_30)"/>
<path d="M22.9962 6.01651C16.0368 6.01651 9.42808 5.39743 6.90383 11.8758C5.86117 14.5514 6.01258 18.0264 6.01258 23.002C6.01258 27.3682 5.87267 31.4718 6.90383 34.1264C9.42233 40.6085 16.0847 39.9875 22.9923 39.9875C29.6566 39.9875 36.5278 40.6814 39.0828 34.1264C40.1273 31.4239 39.974 28.0007 39.974 23.002C39.974 16.3665 40.3401 12.0828 37.122 8.8666C33.8637 5.60826 29.4573 6.01651 22.9885 6.01651H22.9962ZM21.4743 9.07743C35.9912 9.05443 37.8388 7.4406 36.8192 29.8599C36.4569 37.7891 30.4194 36.9189 22.9981 36.9189C9.46642 36.9189 9.07733 36.5318 9.07733 22.9943C9.07733 9.29976 10.1507 9.0851 21.4743 9.0736V9.07743ZM32.062 11.8968C30.9369 11.8968 30.0246 12.8092 30.0246 13.9343C30.0246 15.0593 30.9369 15.9717 32.062 15.9717C33.1871 15.9717 34.0994 15.0593 34.0994 13.9343C34.0994 12.8092 33.1871 11.8968 32.062 11.8968ZM22.9962 14.2793C18.1796 14.2793 14.2753 18.1854 14.2753 23.002C14.2753 27.8186 18.1796 31.7229 22.9962 31.7229C27.8128 31.7229 31.7151 27.8186 31.7151 23.002C31.7151 18.1854 27.8128 14.2793 22.9962 14.2793ZM22.9962 17.3402C30.4808 17.3402 30.4903 28.6639 22.9962 28.6639C15.5135 28.6639 15.502 17.3402 22.9962 17.3402Z" fill="white"/>
</g>
<defs>
<linearGradient id="paint0_linear_106_30" x1="2.96321" y1="43.062" x2="45.7153" y2="6.06052" gradientUnits="userSpaceOnUse">
<stop stop-color="#FFDD55"/>
<stop offset="0.5" stop-color="#FF543E"/>
<stop offset="1" stop-color="#C837AB"/>
</linearGradient>
<clipPath id="clip0_106_30">
<rect width="46" height="46" fill="white"/>
</clipPath>
</defs>
</svg>
