<svg width="46" height="46" viewBox="0 0 46 46" fill="none" xmlns="http://www.w3.org/2000/svg">
<g clip-path="url(#clip0_106_25)">
<path d="M46 8.73712C44.2894 9.4875 42.4666 9.98487 40.5662 10.2264C42.5212 9.05912 44.0134 7.22487 44.7149 5.014C42.8921 6.10075 40.8796 6.86838 38.7349 7.29675C37.0041 5.45388 34.5374 4.3125 31.8464 4.3125C26.6254 4.3125 22.4221 8.55025 22.4221 13.7454C22.4221 14.4929 22.4854 15.2116 22.6406 15.8959C14.8005 15.5135 7.86312 11.7559 3.20275 6.03175C2.38912 7.44338 1.91188 9.05912 1.91188 10.7985C1.91188 14.0645 3.59375 16.9596 6.10075 18.6357C4.58562 18.607 3.09925 18.1671 1.84 17.4742C1.84 17.503 1.84 17.5404 1.84 17.5777C1.84 22.1605 5.10887 25.967 9.3955 26.8439C8.62787 27.0537 7.79125 27.1544 6.923 27.1544C6.31925 27.1544 5.70975 27.1199 5.13762 26.9934C6.3595 30.728 9.82675 33.4736 13.9495 33.5627C10.741 36.0726 6.66713 37.5849 2.25688 37.5849C1.4835 37.5849 0.74175 37.5504 0 37.4555C4.17737 40.1494 9.12813 41.6875 14.467 41.6875C31.8205 41.6875 41.308 27.3125 41.308 14.8523C41.308 14.4354 41.2936 14.0329 41.2735 13.6333C43.1451 12.305 44.7178 10.6461 46 8.73712Z" fill="#03A9F4"/>
</g>
<defs>
<clipPath id="clip0_106_25">
<rect width="46" height="46" fill="white"/>
</clipPath>
</defs>
</svg>
